<svg xmlns="http://www.w3.org/2000/svg" xmlns:xlink="http://www.w3.org/1999/xlink" preserveAspectRatio="xMidYMid" width="14" height="14" viewBox="0 0 14 14">
  <defs>
    <style>

      .cls-2 {
        fill: #ffffff;
      }
    </style>
  </defs>
  <path d="M7.000,0.000 C3.134,0.000 0.000,3.134 0.000,7.000 C0.000,10.866 3.134,14.000 7.000,14.000 C10.866,14.000 14.000,10.866 14.000,7.000 C14.000,3.134 10.866,0.000 7.000,0.000 ZM10.836,6.414 C10.836,6.414 7.733,9.586 7.733,9.586 C7.730,9.590 7.729,9.595 7.725,9.599 C7.725,9.599 7.484,9.844 7.484,9.844 C7.352,9.980 7.178,10.047 7.003,10.046 C6.828,10.047 6.654,9.980 6.522,9.844 C6.522,9.844 6.281,9.599 6.281,9.599 C6.277,9.595 6.277,9.590 6.273,9.585 C6.273,9.585 3.170,6.414 3.170,6.414 C2.904,6.144 2.904,5.705 3.170,5.434 C3.170,5.434 3.409,5.190 3.409,5.190 C3.674,4.918 4.103,4.918 4.368,5.190 C4.368,5.190 7.003,7.882 7.003,7.882 C7.003,7.882 9.638,5.190 9.638,5.190 C9.902,4.918 10.332,4.918 10.597,5.190 C10.597,5.190 10.836,5.434 10.836,5.434 C11.102,5.705 11.102,6.144 10.836,6.414 Z" id="path-1" class="cls-2" fill-rule="evenodd"/>
</svg>
