<svg xmlns="http://www.w3.org/2000/svg" xmlns:xlink="http://www.w3.org/1999/xlink" preserveAspectRatio="xMidYMid" width="6" height="6" viewBox="0 0 8 12">
  <defs>
    <style>

      .cls-2 {
        fill: #bcb5a7;
      }
    </style>
  </defs>
  <path d="M4.162,5.928 C4.162,5.928 0.277,2.042 0.277,2.042 C-0.113,1.651 -0.113,1.018 0.277,0.628 C0.277,0.628 0.631,0.274 0.631,0.274 C1.022,-0.116 1.655,-0.116 2.045,0.274 C2.045,0.274 6.617,4.848 6.617,4.848 C6.625,4.854 6.634,4.856 6.641,4.863 C6.641,4.863 6.994,5.217 6.994,5.217 C7.191,5.413 7.287,5.670 7.286,5.928 C7.287,6.184 7.191,6.442 6.994,6.639 C6.994,6.639 6.641,6.992 6.641,6.992 C6.634,6.999 6.624,7.001 6.617,7.008 C6.617,7.008 2.045,11.580 2.045,11.580 C1.655,11.970 1.022,11.970 0.631,11.580 C0.631,11.580 0.277,11.227 0.277,11.227 C-0.113,10.837 -0.113,10.203 0.277,9.812 C0.277,9.812 4.162,5.928 4.162,5.928 Z" id="path-1" class="cls-2" fill-rule="evenodd"/>
</svg>
