<svg xmlns="http://www.w3.org/2000/svg" xmlns:xlink="http://www.w3.org/1999/xlink" preserveAspectRatio="xMidYMid" width="16" height="12" viewBox="0 0 16 12">
  <defs>
    <style>

      .cls-2 {
        fill: #bcb5a7;
      }
    </style>
  </defs>
  <path d="M15.000,7.000 C15.000,7.000 5.000,7.000 5.000,7.000 C4.448,7.000 4.000,6.552 4.000,6.000 C4.000,5.448 4.448,5.000 5.000,5.000 C5.000,5.000 15.000,5.000 15.000,5.000 C15.552,5.000 16.000,5.448 16.000,6.000 C16.000,6.552 15.552,7.000 15.000,7.000 ZM15.000,2.000 C15.000,2.000 5.000,2.000 5.000,2.000 C4.448,2.000 4.000,1.552 4.000,1.000 C4.000,0.448 4.448,0.000 5.000,0.000 C5.000,0.000 15.000,0.000 15.000,0.000 C15.552,0.000 16.000,0.448 16.000,1.000 C16.000,1.552 15.552,2.000 15.000,2.000 ZM1.000,12.000 C0.448,12.000 0.000,11.552 0.000,11.000 C0.000,10.448 0.448,10.000 1.000,10.000 C1.552,10.000 2.000,10.448 2.000,11.000 C2.000,11.552 1.552,12.000 1.000,12.000 ZM1.000,7.000 C0.448,7.000 0.000,6.552 0.000,6.000 C0.000,5.448 0.448,5.000 1.000,5.000 C1.552,5.000 2.000,5.448 2.000,6.000 C2.000,6.552 1.552,7.000 1.000,7.000 ZM1.000,2.000 C0.448,2.000 0.000,1.552 0.000,1.000 C0.000,0.448 0.448,0.000 1.000,0.000 C1.552,0.000 2.000,0.448 2.000,1.000 C2.000,1.552 1.552,2.000 1.000,2.000 ZM5.000,10.000 C5.000,10.000 15.000,10.000 15.000,10.000 C15.552,10.000 16.000,10.448 16.000,11.000 C16.000,11.552 15.552,12.000 15.000,12.000 C15.000,12.000 5.000,12.000 5.000,12.000 C4.448,12.000 4.000,11.552 4.000,11.000 C4.000,10.448 4.448,10.000 5.000,10.000 Z" id="path-1" class="cls-2" fill-rule="evenodd"/>
</svg>
