<svg xmlns="http://www.w3.org/2000/svg" xmlns:xlink="http://www.w3.org/1999/xlink" preserveAspectRatio="xMidYMid" width="10" height="20" viewBox="0 0 10 20">
  <defs>
    <style>

      .cls-2 {
        fill: #7d7d7d;
      }
    </style>
  </defs>
  <path d="M8.971,0.006 C8.971,1.112 8.971,3.093 8.971,3.093 C8.971,3.093 6.700,2.866 6.131,3.738 C5.820,4.214 6.005,5.609 5.977,6.611 C6.968,6.611 7.998,6.611 8.989,6.611 C8.735,7.783 8.552,8.577 8.365,9.591 C7.507,9.591 5.960,9.591 5.960,9.591 C5.960,9.591 5.960,19.180 5.960,19.180 C5.960,19.180 3.122,19.180 1.787,19.180 C1.788,16.223 1.786,12.775 1.787,9.628 C1.139,9.628 0.660,9.628 0.011,9.628 C0.011,8.523 0.011,7.717 0.011,6.611 C0.640,6.611 1.138,6.611 1.768,6.611 C1.858,4.405 1.891,2.220 2.985,1.107 C4.215,-0.144 5.388,0.006 8.971,0.006 Z" id="path-1" class="cls-2" fill-rule="evenodd"/>
</svg>
