<svg xmlns="http://www.w3.org/2000/svg" xmlns:xlink="http://www.w3.org/1999/xlink" preserveAspectRatio="xMidYMid" width="20" height="17" viewBox="0 0 20 17">
  <defs>
    <style>

      .cls-2 {
        fill: #7d7d7d;
      }
    </style>
  </defs>
  <path d="M16.199,4.192 C16.199,5.218 16.180,6.163 16.180,7.188 C15.861,7.188 15.359,7.188 15.040,7.188 C15.040,6.169 15.021,5.211 15.021,4.192 C14.034,4.148 13.036,4.205 12.017,4.192 C12.017,3.867 12.017,3.326 12.017,3.001 C13.042,3.001 13.977,3.001 15.002,3.001 C15.002,2.014 15.021,1.068 15.021,0.080 C15.020,0.054 14.999,0.027 15.021,0.024 C15.334,0.024 15.868,0.024 16.180,0.024 C16.180,1.024 16.162,2.001 16.162,3.001 C17.143,3.045 18.168,2.989 19.181,3.001 C19.181,3.326 19.181,3.867 19.181,4.192 C18.162,4.192 17.218,4.192 16.199,4.192 ZM8.435,0.774 C9.292,1.483 10.054,2.391 9.991,3.869 C9.928,5.361 8.981,5.963 8.116,6.663 C7.916,6.825 7.610,7.157 7.535,7.357 C7.221,8.183 8.060,8.650 8.491,8.970 C8.885,9.263 9.220,9.517 9.522,9.776 C10.160,10.323 10.764,11.023 10.760,12.233 C10.756,13.555 9.996,14.476 9.147,15.084 C8.296,15.694 7.069,16.114 5.828,16.228 C4.374,16.362 3.002,16.191 1.946,15.722 C0.991,15.298 0.011,14.513 0.014,13.208 C0.015,12.537 0.307,11.869 0.670,11.464 C2.442,9.489 3.699,9.799 6.015,9.626 C5.891,9.382 5.553,9.091 5.434,8.726 C5.281,8.258 5.375,7.736 5.584,7.357 C4.102,7.548 2.918,7.119 2.133,6.363 C1.464,5.718 0.947,4.626 1.214,3.362 C1.443,2.283 2.082,1.503 2.883,0.962 C3.720,0.397 4.741,0.005 6.072,0.005 C7.712,0.005 9.465,0.005 11.210,0.005 C11.210,0.005 9.785,0.774 9.785,0.774 C9.362,0.774 8.953,0.774 8.435,0.774 ZM3.090,10.939 C2.748,11.150 2.340,11.465 2.114,12.065 C1.964,12.465 1.962,12.992 2.077,13.396 C2.403,14.542 3.764,15.204 5.190,15.328 C6.732,15.461 8.289,15.222 8.960,14.127 C9.324,13.534 9.338,12.671 8.979,12.083 C8.556,11.392 7.979,11.090 7.366,10.658 C7.180,10.527 6.996,10.310 6.747,10.245 C6.575,10.200 6.222,10.236 6.034,10.245 C4.810,10.303 3.834,10.481 3.090,10.939 ZM6.203,0.962 C5.893,0.786 5.402,0.688 4.946,0.737 C4.053,0.832 3.468,1.399 3.258,2.012 C2.962,2.881 3.192,4.048 3.502,4.806 C3.839,5.630 4.364,6.303 5.003,6.607 C6.030,7.097 7.393,6.603 7.816,5.725 C7.933,5.483 7.986,5.125 8.003,4.863 C8.114,3.175 7.216,1.537 6.203,0.962 Z" id="path-1" class="cls-2" fill-rule="evenodd"/>
</svg>
