<svg xmlns="http://www.w3.org/2000/svg" xmlns:xlink="http://www.w3.org/1999/xlink" preserveAspectRatio="xMidYMid" width="18" height="19" viewBox="0 0 18 19">
  <defs>
    <style>

      .cls-2 {
        fill: #7d7d7d;
      }
    </style>
  </defs>
  <path d="M14.467,18.599 C14.467,18.599 14.467,10.666 14.467,10.666 C14.467,9.980 14.376,9.454 14.194,9.087 C13.861,8.417 13.228,8.081 12.294,8.081 C11.145,8.081 10.358,8.572 9.930,9.553 C9.708,10.072 9.597,10.734 9.597,11.540 C9.597,11.540 9.597,18.599 9.597,18.599 C9.597,18.599 6.525,18.599 6.525,18.599 C6.525,18.599 6.525,5.393 6.525,5.393 C6.525,5.393 9.490,5.393 9.490,5.393 C9.490,5.393 9.490,7.483 9.490,7.483 C9.926,6.813 10.340,6.331 10.729,6.036 C11.428,5.509 12.314,5.246 13.386,5.246 C14.728,5.246 15.826,5.599 16.680,6.305 C17.534,7.011 17.961,8.181 17.961,9.817 C17.961,9.817 17.961,18.599 17.961,18.599 C17.961,18.599 14.467,18.599 14.467,18.599 ZM2.098,4.221 C0.932,4.221 -0.013,3.275 -0.013,2.109 C-0.013,0.943 0.932,-0.002 2.098,-0.002 C3.264,-0.002 4.209,0.943 4.209,2.109 C4.209,3.275 3.264,4.221 2.098,4.221 ZM3.757,18.599 C3.757,18.599 0.299,18.599 0.299,18.599 C0.299,18.599 0.299,5.557 0.299,5.557 C0.299,5.557 3.757,5.557 3.757,5.557 C3.757,5.557 3.757,18.599 3.757,18.599 Z" id="path-1" class="cls-2" fill-rule="evenodd"/>
</svg>
