<svg xmlns="http://www.w3.org/2000/svg" xmlns:xlink="http://www.w3.org/1999/xlink" preserveAspectRatio="xMidYMid" width="14" height="14" viewBox="0 0 14 14">
  <defs>
    <style>

      .cls-2 {
        fill: #7e7e7e;
      }
    </style>
  </defs>
  <path d="M13.645,12.279 C13.645,12.279 10.872,9.507 10.872,9.507 C11.579,8.522 12.000,7.318 12.000,6.014 C12.000,2.700 9.314,0.014 6.000,0.014 C2.686,0.014 0.000,2.700 0.000,6.014 C0.000,9.327 2.686,12.014 6.000,12.014 C7.286,12.014 8.476,11.605 9.453,10.916 C9.453,10.916 12.231,13.694 12.231,13.694 C12.621,14.084 13.254,14.084 13.645,13.694 C14.035,13.304 14.035,12.670 13.645,12.279 ZM6.000,10.014 C3.791,10.014 2.000,8.223 2.000,6.014 C2.000,3.805 3.791,2.014 6.000,2.014 C8.209,2.014 10.000,3.805 10.000,6.014 C10.000,8.223 8.209,10.014 6.000,10.014 Z" id="path-1" class="cls-2" fill-rule="evenodd"/>
</svg>
