<svg xmlns="http://www.w3.org/2000/svg" xmlns:xlink="http://www.w3.org/1999/xlink" preserveAspectRatio="xMidYMid" width="16" height="13" viewBox="0 0 16 13">
  <defs>
    <style>

      .cls-2 {
        fill: #6e6e6e;
      }
    </style>
  </defs>
  <path d="M10.960,8.004 C10.960,8.004 10.960,5.562 10.960,5.562 C5.512,5.562 3.973,7.998 3.973,7.998 C3.973,2.633 10.831,2.343 10.959,2.343 C10.960,2.343 10.960,-0.001 10.960,-0.001 C10.960,-0.001 16.000,4.020 16.000,4.020 C16.000,4.020 10.960,8.004 10.960,8.004 ZM5.000,2.000 C4.996,2.000 4.994,1.998 4.990,1.998 C4.990,1.998 4.990,2.001 4.990,2.001 C4.990,2.001 0.990,2.001 0.990,2.001 C0.990,2.001 0.990,12.001 0.990,12.001 C0.990,12.001 12.990,12.001 12.990,12.001 C12.990,12.001 12.990,10.001 12.990,10.001 C12.990,10.001 13.000,10.001 13.000,10.001 C13.000,10.001 13.000,10.000 13.000,10.000 C13.000,9.447 12.979,9.000 13.000,9.000 C13.553,9.000 14.000,9.447 14.000,10.000 C14.000,10.000 14.000,11.000 14.000,11.000 C14.000,11.034 13.984,11.063 13.981,11.096 C13.930,12.155 13.063,13.001 11.990,13.001 C11.990,13.001 1.990,13.001 1.990,13.001 C0.887,13.001 -0.010,12.106 -0.010,11.001 C-0.010,11.001 -0.010,3.001 -0.010,3.001 C-0.010,1.897 0.887,1.001 1.990,1.001 C1.990,1.001 4.990,1.001 4.990,1.001 C4.990,1.001 4.990,1.002 4.990,1.002 C4.994,1.002 4.996,1.000 5.000,1.000 C5.553,1.000 6.000,1.447 6.000,2.000 C6.000,2.021 5.553,2.000 5.000,2.000 Z" id="path-1" class="cls-2" fill-rule="evenodd"/>
</svg>
