<svg xmlns="http://www.w3.org/2000/svg" xmlns:xlink="http://www.w3.org/1999/xlink" preserveAspectRatio="xMidYMid" width="16" height="16" viewBox="0 0 16 16">
  <defs>
    <style>

      .cls-2 {
        fill: #6e6e6e;
      }
    </style>
  </defs>
  <path d="M15.927,5.969 C15.789,5.557 15.434,5.256 15.007,5.190 C15.007,5.190 10.851,4.552 10.851,4.552 C10.851,4.552 9.044,0.681 9.044,0.681 C8.854,0.274 8.448,0.014 8.000,0.014 C7.553,0.014 7.146,0.274 6.956,0.681 C6.956,0.681 5.149,4.552 5.149,4.552 C5.149,4.552 0.993,5.190 0.993,5.190 C0.565,5.256 0.211,5.557 0.073,5.969 C-0.064,6.382 0.040,6.836 0.341,7.147 C0.341,7.147 3.387,10.286 3.387,10.286 C3.387,10.286 2.681,14.640 2.681,14.640 C2.609,15.079 2.793,15.519 3.154,15.776 C3.352,15.916 3.585,15.987 3.818,15.987 C4.010,15.987 4.202,15.939 4.377,15.843 C4.377,15.843 8.000,13.829 8.000,13.829 C8.000,13.829 11.624,15.843 11.624,15.843 C11.798,15.939 11.990,15.987 12.181,15.987 C12.415,15.987 12.647,15.916 12.846,15.776 C13.207,15.519 13.391,15.079 13.320,14.640 C13.320,14.640 12.613,10.286 12.613,10.286 C12.613,10.286 15.659,7.147 15.659,7.147 C15.961,6.836 16.064,6.382 15.927,5.969 ZM11.788,9.476 C11.532,9.739 11.416,10.109 11.475,10.472 C11.475,10.472 12.181,14.828 12.181,14.828 C12.181,14.828 8.558,12.814 8.558,12.814 C8.384,12.718 8.192,12.669 8.000,12.669 C7.808,12.669 7.616,12.718 7.442,12.814 C7.442,12.814 3.818,14.828 3.818,14.828 C3.818,14.828 4.525,10.472 4.525,10.472 C4.584,10.109 4.468,9.739 4.213,9.476 C4.213,9.476 1.167,6.337 1.167,6.337 C1.167,6.337 5.323,5.698 5.323,5.698 C5.703,5.640 6.030,5.395 6.193,5.045 C6.193,5.045 8.000,1.174 8.000,1.174 C8.000,1.174 9.807,5.045 9.807,5.045 C9.970,5.395 10.297,5.640 10.677,5.698 C10.677,5.698 14.833,6.337 14.833,6.337 C14.833,6.337 11.788,9.476 11.788,9.476 Z" id="path-1" class="cls-2" fill-rule="evenodd"/>
</svg>
