<svg xmlns="http://www.w3.org/2000/svg" xmlns:xlink="http://www.w3.org/1999/xlink" preserveAspectRatio="xMidYMid" width="15" height="15" viewBox="0 0 15 15">
  <defs>
    <style>

      .cls-2 {
        fill: #bcb5a7;
      }
    </style>
  </defs>
  <path d="M14.000,15.000 C14.000,15.000 9.000,15.000 9.000,15.000 C8.448,15.000 8.000,14.552 8.000,14.000 C8.000,14.000 8.000,9.000 8.000,9.000 C8.000,8.448 8.448,8.000 9.000,8.000 C9.000,8.000 14.000,8.000 14.000,8.000 C14.552,8.000 15.000,8.448 15.000,9.000 C15.000,9.000 15.000,14.000 15.000,14.000 C15.000,14.552 14.552,15.000 14.000,15.000 ZM14.000,7.000 C14.000,7.000 9.000,7.000 9.000,7.000 C8.448,7.000 8.000,6.552 8.000,6.000 C8.000,6.000 8.000,1.000 8.000,1.000 C8.000,0.448 8.448,0.000 9.000,0.000 C9.000,0.000 14.000,0.000 14.000,0.000 C14.552,0.000 15.000,0.448 15.000,1.000 C15.000,1.000 15.000,6.000 15.000,6.000 C15.000,6.552 14.552,7.000 14.000,7.000 ZM6.000,15.000 C6.000,15.000 1.000,15.000 1.000,15.000 C0.448,15.000 0.000,14.552 0.000,14.000 C0.000,14.000 0.000,9.000 0.000,9.000 C0.000,8.448 0.448,8.000 1.000,8.000 C1.000,8.000 6.000,8.000 6.000,8.000 C6.552,8.000 7.000,8.448 7.000,9.000 C7.000,9.000 7.000,14.000 7.000,14.000 C7.000,14.552 6.552,15.000 6.000,15.000 ZM6.000,7.000 C6.000,7.000 1.000,7.000 1.000,7.000 C0.448,7.000 0.000,6.552 0.000,6.000 C0.000,6.000 0.000,1.000 0.000,1.000 C0.000,0.448 0.448,0.000 1.000,0.000 C1.000,0.000 6.000,0.000 6.000,0.000 C6.552,0.000 7.000,0.448 7.000,1.000 C7.000,1.000 7.000,6.000 7.000,6.000 C7.000,6.552 6.552,7.000 6.000,7.000 Z" id="path-1" class="cls-2" fill-rule="evenodd"/>
</svg>
