<svg xmlns="http://www.w3.org/2000/svg" xmlns:xlink="http://www.w3.org/1999/xlink" preserveAspectRatio="xMidYMid" width="19" height="17" viewBox="0 0 19 17">
  <defs>
    <style>

      .cls-2 {
        fill: #7d7d7d;
      }
    </style>
  </defs>
  <path d="M19.202,1.936 C19.110,2.657 18.064,3.381 17.430,3.929 C18.056,13.145 7.606,18.894 0.013,14.224 C2.142,14.240 4.540,13.656 5.807,12.453 C3.965,12.154 2.660,11.319 2.154,9.685 C2.693,9.634 3.451,9.801 3.815,9.574 C2.130,8.935 0.797,7.942 0.715,5.700 C1.315,5.764 1.627,6.116 2.375,6.032 C1.286,5.334 0.042,2.678 1.158,0.719 C3.135,2.911 5.603,4.612 9.460,4.925 C8.503,0.856 13.897,-1.665 16.324,1.272 C17.267,1.072 18.062,0.723 18.869,0.386 C18.539,1.310 17.867,1.893 17.209,2.490 C17.924,2.356 18.680,2.263 19.202,1.936 Z" id="path-1" class="cls-2" fill-rule="evenodd"/>
</svg>
